HIERARCHY
ROOT Hips
{
  OFFSET 0 0 0
  CHANNELS 6 Xposition Yposition Zposition Zrotation Yrotation Xrotation
  JOINT LeftThigh
  {
    OFFSET 8.409438 0 -5.917753
    CHANNELS 3 Zrotation Yrotation Xrotation
    JOINT LeftLeg
    {
      OFFSET 0 0 -42.358652
      CHANNELS 3 Zrotation Yrotation Xrotation
      JOINT LeftFoot
      {
        OFFSET 0 0 -39.357303
        CHANNELS 3 Zrotation Yrotation Xrotation
      }
    }
  }
  JOINT RightThigh
  {
    OFFSET -8.409438 0 -5.917753
    CHANNELS 3 Zrotation Yrotation Xrotation
    JOINT RightLeg
    {
      OFFSET 0 0 -42.358652
      CHANNELS 3 Zrotation Yrotation Xrotation
      JOINT RightFoot
      {
        OFFSET 0 0 -39.357303
        CHANNELS 3 Zrotation Yrotation Xrotation
      }
    }
  }
  JOINT SpineLow
  {
    OFFSET 0 0 4.719101
    CHANNELS 3 Zrotation Yrotation Xrotation
    JOINT SpineMid
    {
      OFFSET 0 0 12.899191
      CHANNELS 3 Zrotation Yrotation Xrotation
      JOINT Chest
      {
        OFFSET 0 0 12.899191
        CHANNELS 3 Zrotation Yrotation Xrotation
        JOINT LeftShoulder
        {
          OFFSET 7.550562 1.41573 9.438202
          CHANNELS 3 Zrotation Yrotation Xrotation
          JOINT LeftArm
          {
            OFFSET 9.155056 0 4.247191
            CHANNELS 3 Zrotation Yrotation Xrotation
            JOINT LeftForearm
            {
              OFFSET 0 0 25.771955
              CHANNELS 3 Zrotation Yrotation Xrotation
              JOINT LeftHand
              {
                OFFSET 0 0 25.197169
                CHANNELS 3 Zrotation Yrotation Xrotation
              }
            }
          }
        }
        JOINT RightShoulder
        {
          OFFSET -7.550562 1.41573 9.438202
          CHANNELS 3 Zrotation Yrotation Xrotation
          JOINT RightArm
          {
            OFFSET -9.155056 0 4.247191
            CHANNELS 3 Zrotation Yrotation Xrotation
            JOINT RightForearm
            {
              OFFSET 0 0 -25.771955
              CHANNELS 3 Zrotation Yrotation Xrotation
              JOINT RightHand
              {
                OFFSET 0 0 -25.197169
                CHANNELS 3 Zrotation Yrotation Xrotation
              }
            }
          }
        }
        JOINT Neck
        {
          OFFSET 0 0 15.101124
          CHANNELS 3 Zrotation Yrotation Xrotation
          JOINT Head
          {
            OFFSET 0 0 11.325843
            CHANNELS 3 Zrotation Yrotation Xrotation
            End Site
            {
              OFFSET 0 0 14.157303
            }
          }
        }
      }
    }
  }
}
MOTION
Frames: 13
Frame Time: 0.0
0.0  89.887642  0.0  1.69639  20.149144  -89.388308  -2.203132  -13.889281  -11.660098  -14.62979  5.364819  19.591928  -4.883209  -3.168799  1.035817  -22.130916  12.35926  -10.197479  -15.705227  7.284902  17.153561  -1.039714  1.119119  -2.293719  -1.677845  0.424277  0.054888  -4.58569  1.162884  0.120533  -4.58569  1.162884  0.120533  -1.978448  14.089507  13.099818  131.322614  47.573266  -165.13205  -31.766078  4.914682  31.909345  77.783389  -14.173645  4.766464  -5.137861  -13.090788  23.58431  89.592131  37.843341  39.914006  -7.744096  0.812345  -39.88482  86.886739  14.542721  -25.370576  -7.625413  0.209729  2.77812  -5.720147  0.122656  2.08659  
0.0  89.887642  0.0  1.882049  20.739263  -89.013303  -2.98538  -13.817771  -12.437493  -14.518508  5.645325  20.11659  -4.812659  -3.049679  1.170802  -22.845352  12.63676  -11.742291  -15.549726  7.645429  19.22536  -1.115605  1.183063  -2.418201  -1.712821  0.463094  0.030932  -4.681759  1.267281  0.051718  -4.681759  1.267281  0.051718  -2.148695  14.069373  13.089048  130.961523  47.319488  -165.529923  -31.551043  4.744423  31.51098  77.845958  -14.107242  4.703786  -4.896844  -13.314914  23.552527  90.344153  37.632167  40.070711  -8.110341  1.056772  -37.199186  87.014115  14.808059  -25.059943  -7.874625  0.138365  2.721545  -5.906721  0.068718  2.043342  
0.0  89.887642  0.0  2.114739  21.402738  -88.552213  -3.672086  -13.66884  -13.286282  -14.617496  6.007611  20.623213  -4.823701  -3.035735  1.239484  -23.323008  12.786421  -13.250217  -15.554966  8.269979  21.376827  -1.044741  1.252334  -2.537642  -1.755322  0.512759  0.025839  -4.798111  1.402602  0.033385  -4.798111  1.402602  0.033385  -2.27368  13.791516  12.871073  130.417686  46.977499  -165.828275  -31.420323  4.538848  31.25177  77.936552  -13.946118  4.784384  -4.572637  -13.393647  23.509594  90.325181  37.839203  39.674097  -7.886922  1.530185  -34.78172  87.212895  15.080119  -24.770601  -8.162586  0.006308  2.546822  -6.122092  -0.029295  1.910605  
0.0  89.887642  0.0  2.367991  22.112526  -87.975594  -4.211708  -13.585705  -14.300092  -14.915449  6.494608  21.125296  -4.716136  -2.885258  1.286133  -24.556127  12.413516  -15.340866  -14.355735  9.190037  23.877116  -2.402015  1.05305  -2.758829  -1.808835  0.573594  0.029573  -4.944422  1.569063  0.0379  -4.944422  1.569063  0.037901  -2.287466  13.43714  12.589204  129.942316  46.603532  -166.113567  -31.18982  4.307049  31.361484  78.027003  -13.717695  5.054798  -4.224587  -13.569174  23.233108  90.260843  37.899561  39.436041  -7.620361  2.107015  -32.810692  87.431204  15.383538  -24.509598  -8.454864  -0.209709  2.28229  -6.340463  -0.188905  1.709202  
0.0  89.887642  0.0  2.674809  22.918544  -87.278515  -4.723817  -13.496048  -15.51478  -15.171965  7.1343  21.818654  -4.67391  -2.843094  1.267409  -24.649162  12.337207  -17.137242  -13.91105  9.903457  26.310801  -2.507532  1.236472  -2.767115  -1.879597  0.655059  0.030381  -5.138026  1.791655  0.032096  -5.138026  1.791655  0.032096  -2.301511  12.974179  12.425096  129.382413  46.441166  -166.172498  -31.27459  3.994617  31.459512  78.150389  -13.427236  5.493493  -3.759267  -13.835548  22.9139  89.757116  38.041765  39.091044  -7.157364  2.72716  -31.354378  87.619907  15.708366  -24.185431  -8.75825  -0.551227  1.975794  -6.566936  -0.441851  1.474293  
0.0  89.887642  0.0  2.957954  23.836723  -86.473989  -5.298739  -13.513393  -17.074969  -15.424092  7.934014  22.725717  -4.458248  -2.735912  1.278063  -24.44883  11.59302  -18.952675  -14.565584  11.139671  28.268155  -1.813827  2.134501  -2.647999  -1.959358  0.718962  -0.007657  -5.357388  1.963109  -0.079171  -5.357388  1.963109  -0.079171  -2.226319  12.623184  12.389091  128.783762  46.331515  -166.237563  -30.981255  3.959719  32.045344  78.075671  -12.878123  5.54633  -3.444901  -13.965793  22.730318  88.932098  38.189484  38.658669  -6.537343  3.366373  -30.483263  87.786701  15.99609  -23.795147  -9.111848  -0.889675  1.715151  -6.831316  -0.69302  1.273406  
0.0  89.887642  0.0  3.142489  24.84078  -85.66848  -5.753806  -13.704744  -18.843459  -15.673171  8.943489  23.888134  -4.212775  -2.732033  1.238699  -24.076777  11.160546  -20.686593  -14.105797  12.112958  30.597949  -2.089951  2.479685  -2.527928  -2.033736  0.753627  -0.045618  -5.562086  2.054453  -0.188006  -5.562086  2.054453  -0.188006  -2.182274  12.331826  12.28804  128.087609  46.272594  -166.261134  -31.316774  3.794434  32.253912  78.205869  -12.724198  6.023702  -3.187074  -13.880267  22.599936  87.742446  38.474877  38.055507  -5.674881  3.987951  -30.184994  87.843565  16.233906  -23.307283  -9.560712  -1.248755  1.394781  -7.167445  -0.958672  1.026801  
0.0  89.887642  0.0  3.217145  25.759226  -84.962026  -6.106317  -14.162935  -20.80506  -15.645322  10.20314  25.430557  -3.820939  -2.711261  1.077848  -23.493813  10.663634  -22.214348  -13.587068  13.160097  32.914475  -2.45414  2.757793  -2.530935  -2.073992  0.769994  -0.05219  -5.672465  2.098445  -0.208614  -5.672465  2.098445  -0.208614  -2.228927  11.953759  11.948952  127.431525  46.116735  -166.183764  -31.631258  3.728788  32.625503  78.379731  -12.586368  6.153218  -3.130697  -13.654684  22.390474  86.657205  38.758823  37.420049  -4.935374  4.642963  -30.29016  88.00752  16.483503  -22.89276  -10.098948  -1.665806  0.958673  -7.571087  -1.265611  0.69164  
0.0  89.887642  0.0  3.120578  26.242346  -84.51752  -6.13674  -14.750123  -22.515877  -15.365677  11.413589  26.963825  -3.350457  -2.797643  0.916878  -22.145755  10.243178  -23.35657  -13.306973  14.175588  35.130072  -2.404183  3.090709  -2.614883  -2.020835  0.782869  -0.003063  -5.525625  2.137921  -0.07379  -5.525625  2.137921  -0.07379  -2.336163  11.443482  11.515785  126.840839  46.022982  -165.927832  -32.131602  3.642748  32.956719  78.526878  -12.518921  6.30803  -3.222815  -13.404024  22.08526  86.071639  39.044819  36.977102  -4.244509  5.263065  -30.684647  88.007736  16.769877  -22.474676  -10.732741  -2.177039  0.418552  -8.0471  -1.64073  0.275722  
0.0  89.887642  0.0  2.89212  26.299797  -84.388783  -5.583468  -15.154646  -23.776507  -15.069533  12.179411  28.340024  -3.07171  -2.850861  0.788635  -19.844736  9.791907  -23.900682  -13.233284  14.975474  36.731708  -2.005823  3.230296  -2.433002  -1.905174  0.788655  0.100789  -5.206015  2.162106  0.213253  -5.206015  2.162107  0.213253  -2.347316  10.895995  11.03536  126.387402  45.957975  -165.472021  -32.668154  3.542863  33.361255  78.616607  -12.424114  6.418081  -3.236279  -13.121884  21.666114  86.218719  39.310729  36.754042  -5.380037  5.623459  -30.747176  88.226082  17.334988  -22.319289  -11.335737  -2.711869  -0.206882  -8.501134  -2.030893  -0.20556  
0.0  89.887642  0.0  2.4436  25.736868  -84.888419  -3.928795  -15.389308  -24.555436  -15.402482  12.733829  29.566457  -2.987203  -2.866693  0.658697  -16.828298  9.38881  -23.964232  -12.945499  15.104218  37.891736  -2.346969  3.626291  -1.893468  -1.69511  0.773701  0.291998  -4.625473  2.134072  0.74371  -4.625473  2.134072  0.74371  -2.405724  10.529775  10.370603  126.079752  45.830577  -165.053417  -33.356639  3.399261  33.800709  78.690699  -12.290647  6.5533  -2.976706  -12.85512  21.211022  86.560694  39.509874  36.662978  -5.250029  6.09951  -30.96481  87.950568  17.717745  -22.048841  -11.876119  -3.236326  -0.841538  -8.909195  -2.411979  -0.694259  
0.0  89.887642  0.0  1.769139  24.633814  -85.566255  -1.453344  -15.885107  -24.973146  -15.621528  13.351584  30.676733  -3.586213  -3.085624  0.269219  -13.603301  8.892604  -24.07283  -12.743296  14.913053  39.014538  -3.007294  4.192841  -1.481744  -1.382332  0.719974  0.467022  -3.765448  1.99385  1.235273  -3.765447  1.99385  1.235273  -2.710434  10.4944  9.720426  126.029556  45.672746  -164.731542  -34.16037  3.253955  34.285154  78.758559  -12.058869  6.69857  -2.594046  -12.71203  20.932748  87.106874  39.692189  37.098181  -5.660216  6.375354  -31.023546  87.715942  18.134253  -21.972047  -12.426963  -3.642366  -1.32665  -9.325041  -2.706145  -1.069345  
0.0  89.887642  0.0  0.909241  23.486003  -86.063236  0.448191  -16.742454  -24.983134  -14.999728  13.593338  31.444013  -4.863479  -3.365996  -0.118297  -11.383584  7.993612  -24.613908  -12.213646  14.794206  40.052069  -3.448207  4.608953  -1.224275  -1.07841  0.603164  0.541259  -2.934632  1.672352  1.452528  -2.934632  1.672352  1.452528  -2.817841  10.854004  9.354968  126.14782  45.537745  -164.462277  -35.136636  3.216535  34.764696  78.843434  -11.683182  6.904112  -1.85504  -12.606439  21.16163  87.801734  40.163711  38.131565  -5.99364  6.286929  -30.931558  87.303883  18.343264  -21.727637  -12.849935  -3.764254  -1.51824  -9.643405  -2.792759  -1.218176  
